# xmcd
#
# Track frame offsets:
#	150
#	10343
#	25299
#	41338
#	58070
#	71680
#	85852
#	107301
#	125573
#	138772
#
# Disc length: 2111 seconds
#
# Revision: 1
# Processed by: cddbd v1.5.2PL0 Copyright (c) Steve Scherf et al.
# Submitted via: EasyCDDAExtractor 7.0.3.1
#
DISCID=7c083d0a
DTITLE=Jody Jenkins - Under A Texas Moon
DYEAR=2001
DGENRE=Country
TTITLE0=When It Comes To Love
TTITLE1=I Just Couldn't Go On (Another Day) 
TTITLE2=Fallin'
TTITLE3=Her Last Goodbye
TTITLE4=Pressure
TTITLE5=Throwin' Old Memories
TTITLE6=I'm Ashamed
TTITLE7=Dancer's Den
TTITLE8=Prisoner (Of The Honky Tonks)
TTITLE9=It Hurts
EXTD=
EXTT0=
EXTT1=
EXTT2=
EXTT3=
EXTT4=
EXTT5=
EXTT6=
EXTT7=
EXTT8=
EXTT9=
PLAYORDER=
